<svg id="Layer_1" data-name="Layer 1" xmlns="http://www.w3.org/2000/svg" viewBox="0 0 79.37 79.37"><defs><style>.cls-1{fill:#17a8e0;}.cls-2{fill:#353535;}.cls-3{fill:none;}.cls-4{fill:#20bbb1;}.cls-5{fill:#009b90;}</style></defs><title>icons-masterfilefinal</title><path class="cls-1" d="M38.36,14.67H20.7V34.85H45.93a15.08,15.08,0,0,1,6.17,1.31,15.07,15.07,0,0,0,1.4-6.36h0A15.14,15.14,0,0,0,38.36,14.67Z"/><path class="cls-2" d="M20.7,34.85V44.94H38.36A15.14,15.14,0,0,0,52.1,36.17a15.08,15.08,0,0,0-6.17-1.31Z"/><path class="cls-3" d="M42.53,49.55l-.21,0Z"/><path class="cls-3" d="M45.18,48.79l-.2.06Z"/><path class="cls-3" d="M43.87,49.21l-.27.07Z"/><path class="cls-4" d="M56.32,39a20.29,20.29,0,0,1-11.13,9.8l-.2.06c-.37.13-.74.25-1.11.36l-.27.07c-.35.1-.71.19-1.07.27l-.21,0a20,20,0,0,1-4,.4H20.7V65.13H45.93A15.14,15.14,0,0,0,61.07,50h0A15.08,15.08,0,0,0,56.32,39Z"/><path class="cls-5" d="M42.32,49.59l.21,0c.36-.08.72-.17,1.07-.27l.27-.07c.38-.11.75-.23,1.11-.36l.2-.06A20.29,20.29,0,0,0,56.32,39h0a15.18,15.18,0,0,0-4.22-2.82,15.14,15.14,0,0,1-13.73,8.78H20.7v5H38.36A20,20,0,0,0,42.32,49.59Z"/></svg>