<svg xmlns="http://www.w3.org/2000/svg" xmlns:xlink="http://www.w3.org/1999/xlink" id="processonSvg1000" viewBox="305.0 12.0 658.0 745.0" width="658.0" height="745.0"><defs id="ProcessOnDefs1001"><marker id="ProcessOnMarker1095" markerUnits="userSpaceOnUse" orient="auto" markerWidth="16.23606797749979" markerHeight="10.550836550532098" viewBox="-1.0 -1.3763819204711736 16.23606797749979 10.550836550532098" refX="-1.0" refY="3.8990363547948754"><path id="ProcessOnPath1096" d="M12.0 3.8990363547948754L0.0 7.798072709589751V0.0Z" stroke="#323232" stroke-width="2.0" fill="#323232" transform="matrix(1.0,0.0,0.0,1.0,0.0,0.0)"/></marker><marker id="ProcessOnMarker1108" markerUnits="userSpaceOnUse" orient="auto" markerWidth="16.23606797749979" markerHeight="10.550836550532098" viewBox="-1.0 -1.3763819204711736 16.23606797749979 10.550836550532098" refX="-1.0" refY="3.8990363547948754"><path id="ProcessOnPath1109" d="M12.0 3.8990363547948754L0.0 7.798072709589751V0.0Z" stroke="#323232" stroke-width="2.0" fill="#323232" transform="matrix(1.0,0.0,0.0,1.0,0.0,0.0)"/></marker><marker id="ProcessOnMarker1115" markerUnits="userSpaceOnUse" orient="auto" markerWidth="16.23606797749979" markerHeight="10.550836550532098" viewBox="-1.0 -1.3763819204711736 16.23606797749979 10.550836550532098" refX="-1.0" refY="3.8990363547948754"><path id="ProcessOnPath1116" d="M12.0 3.8990363547948754L0.0 7.798072709589751V0.0Z" stroke="#323232" stroke-width="2.0" fill="#323232" transform="matrix(1.0,0.0,0.0,1.0,0.0,0.0)"/></marker><marker id="ProcessOnMarker1119" markerUnits="userSpaceOnUse" orient="auto" markerWidth="16.23606797749979" markerHeight="10.550836550532098" viewBox="-1.0 -1.3763819204711736 16.23606797749979 10.550836550532098" refX="-1.0" refY="3.8990363547948754"><path id="ProcessOnPath1120" d="M12.0 3.8990363547948754L0.0 7.798072709589751V0.0Z" stroke="#323232" stroke-width="2.0" fill="#323232" transform="matrix(1.0,0.0,0.0,1.0,0.0,0.0)"/></marker><marker id="ProcessOnMarker1123" markerUnits="userSpaceOnUse" orient="auto" markerWidth="16.23606797749979" markerHeight="10.550836550532098" viewBox="-1.0 -1.3763819204711736 16.23606797749979 10.550836550532098" refX="-1.0" refY="3.8990363547948754"><path id="ProcessOnPath1124" d="M12.0 3.8990363547948754L0.0 7.798072709589751V0.0Z" stroke="#323232" stroke-width="2.0" fill="#323232" transform="matrix(1.0,0.0,0.0,1.0,0.0,0.0)"/></marker><marker id="ProcessOnMarker1142" markerUnits="userSpaceOnUse" orient="auto" markerWidth="16.23606797749979" markerHeight="10.550836550532098" viewBox="-1.0 -1.3763819204711736 16.23606797749979 10.550836550532098" refX="-1.0" refY="3.8990363547948754"><path id="ProcessOnPath1143" d="M12.0 3.8990363547948754L0.0 7.798072709589751V0.0Z" stroke="#323232" stroke-width="2.0" fill="#323232" transform="matrix(1.0,0.0,0.0,1.0,0.0,0.0)"/></marker><marker id="ProcessOnMarker1150" markerUnits="userSpaceOnUse" orient="auto" markerWidth="16.23606797749979" markerHeight="10.550836550532098" viewBox="-1.0 -1.3763819204711736 16.23606797749979 10.550836550532098" refX="-1.0" refY="3.8990363547948754"><path id="ProcessOnPath1151" d="M12.0 3.8990363547948754L0.0 7.798072709589751V0.0Z" stroke="#323232" stroke-width="2.0" fill="#323232" transform="matrix(1.0,0.0,0.0,1.0,0.0,0.0)"/></marker><marker id="ProcessOnMarker1154" markerUnits="userSpaceOnUse" orient="auto" markerWidth="16.23606797749979" markerHeight="10.550836550532098" viewBox="-1.0 -1.3763819204711736 16.23606797749979 10.550836550532098" refX="-1.0" refY="3.8990363547948754"><path id="ProcessOnPath1155" d="M12.0 3.8990363547948754L0.0 7.798072709589751V0.0Z" stroke="#323232" stroke-width="2.0" fill="#323232" transform="matrix(1.0,0.0,0.0,1.0,0.0,0.0)"/></marker><marker id="ProcessOnMarker1158" markerUnits="userSpaceOnUse" orient="auto" markerWidth="16.23606797749979" markerHeight="10.550836550532098" viewBox="-1.0 -1.3763819204711736 16.23606797749979 10.550836550532098" refX="-1.0" refY="3.8990363547948754"><path id="ProcessOnPath1159" d="M12.0 3.8990363547948754L0.0 7.798072709589751V0.0Z" stroke="#323232" stroke-width="2.0" fill="#323232" transform="matrix(1.0,0.0,0.0,1.0,0.0,0.0)"/></marker></defs><g id="ProcessOnG1002"><path id="ProcessOnPath1003" d="M305.0 12.0H963.0V757.0H305.0V12.0Z" fill="none"/><g id="ProcessOnG1004"><g id="ProcessOnG1005" transform="matrix(1.0,0.0,0.0,1.0,325.0,59.0)" opacity="1.0"><path id="ProcessOnPath1006" d="M0.0 0.0L618.0 0.0L618.0 678.0L0.0 678.0Z" stroke="#323232" stroke-width="1.0" stroke-dasharray="none" opacity="1.0" fill="#e5e5e5"/></g><g id="ProcessOnG1007" transform="matrix(1.0,0.0,0.0,1.0,757.0,238.5)" opacity="1.0"><path id="ProcessOnPath1008" d="M0.0 0.0L172.0 0.0L172.0 101.0L0.0 101.0Z" stroke="#323232" stroke-width="1.0" stroke-dasharray="1.0 1.5" opacity="1.0" fill="#ccffe6"/></g><g id="ProcessOnG1009" transform="matrix(1.0,0.0,0.0,1.0,334.0,86.0)" opacity="1.0"><path id="ProcessOnPath1010" d="M0.0 0.0L592.0 0.0L592.0 118.0L0.0 118.0Z" stroke="#323232" stroke-width="1.0" stroke-dasharray="1.0 1.5" opacity="1.0" fill="#ccffcc"/></g><g id="ProcessOnG1011" transform="matrix(1.0,0.0,0.0,1.0,333.0,635.0)" opacity="1.0"><path id="ProcessOnPath1012" d="M0.0 4.0Q0.0 0.0 4.0 0.0L592.0 0.0Q596.0 0.0 596.0 4.0L596.0 89.0Q596.0 93.0 592.0 93.0L4.0 93.0Q0.0 93.0 0.0 89.0Z" stroke="#323232" stroke-width="1.0" stroke-dasharray="1.0 1.5" opacity="1.0" fill="#ffe6cc"/></g><g id="ProcessOnG1013" transform="matrix(1.0,0.0,0.0,1.0,333.0,507.0)" opacity="1.0"><path id="ProcessOnPath1014" d="M0.0 4.0Q0.0 0.0 4.0 0.0L592.0 0.0Q596.0 0.0 596.0 4.0L596.0 85.0Q596.0 89.0 592.0 89.0L4.0 89.0Q0.0 89.0 0.0 85.0Z" stroke="#323232" stroke-width="1.0" stroke-dasharray="1.0 1.5" opacity="1.0" fill="#e5ccff"/></g><g id="ProcessOnG1015" transform="matrix(1.0,0.0,0.0,1.0,335.0,238.5)" opacity="1.0"><path id="ProcessOnPath1016" d="M0.0 0.0L385.0 0.0L385.0 101.0L0.0 101.0Z" stroke="#323232" stroke-width="1.0" stroke-dasharray="1.0 1.5" opacity="1.0" fill="#ccffe6"/></g><g id="ProcessOnG1017" transform="matrix(1.0,0.0,0.0,1.0,333.0,377.0)" opacity="1.0"><path id="ProcessOnPath1018" d="M0.0 4.0Q0.0 0.0 4.0 0.0L592.0 0.0Q596.0 0.0 596.0 4.0L596.0 101.0Q596.0 105.0 592.0 105.0L4.0 105.0Q0.0 105.0 0.0 101.0Z" stroke="#323232" stroke-width="1.0" stroke-dasharray="1.0 1.5" opacity="1.0" fill="#cce5ff"/></g><g id="ProcessOnG1019" transform="matrix(1.0,0.0,0.0,1.0,399.0,135.0)" opacity="1.0"><path id="ProcessOnPath1020" d="M0.0 0.0L124.0 0.0L124.0 30.0L0.0 30.0Z" stroke="#323232" stroke-width="1.0" stroke-dasharray="none" opacity="1.0" fill="#e6ffcc"/><g id="ProcessOnG1021" transform="matrix(1.0,0.0,0.0,1.0,10.0,6.875)"><text id="ProcessOnText1022" fill="#000000" font-size="13" x="51.0" y="13.325" font-family="微软雅黑" font-weight="normal" font-style="normal" text-decoration="none" family="微软雅黑" text-anchor="middle" size="13">FileBeat</text></g></g><g id="ProcessOnG1023" transform="matrix(1.0,0.0,0.0,1.0,547.0,138.0)" opacity="1.0"><path id="ProcessOnPath1024" d="M0.0 0.0L124.0 0.0L124.0 30.0L0.0 30.0Z" stroke="#323232" stroke-width="1.0" stroke-dasharray="none" opacity="1.0" fill="#e6ffcc"/><g id="ProcessOnG1025" transform="matrix(1.0,0.0,0.0,1.0,10.0,6.875)"><text id="ProcessOnText1026" fill="#000000" font-size="13" x="51.0" y="13.325" font-family="微软雅黑" font-weight="normal" font-style="normal" text-decoration="none" family="微软雅黑" text-anchor="middle" size="13">JournalBeat</text></g></g><g id="ProcessOnG1027" transform="matrix(1.0,0.0,0.0,1.0,547.0,264.75)" opacity="1.0"><path id="ProcessOnPath1028" d="M0.0 0.0L124.0 0.0L124.0 30.0L0.0 30.0Z" stroke="#323232" stroke-width="1.0" stroke-dasharray="none" opacity="1.0" fill="#99ff99"/></g><g id="ProcessOnG1029" transform="matrix(1.0,0.0,0.0,1.0,430.0,419.0)" opacity="1.0"><path id="ProcessOnPath1030" d="M0.0 4.0Q0.0 0.0 4.0 0.0L457.0 0.0Q461.0 0.0 461.0 4.0L461.0 25.0Q461.0 29.0 457.0 29.0L4.0 29.0Q0.0 29.0 0.0 25.0Z" stroke="#323232" stroke-width="1.0" stroke-dasharray="none" opacity="1.0" fill="#99ccff"/><g id="ProcessOnG1031" transform="matrix(1.0,0.0,0.0,1.0,10.0,6.375)"><text id="ProcessOnText1032" fill="#000000" font-size="13" x="219.5" y="13.325" font-family="微软雅黑" font-weight="normal" font-style="normal" text-decoration="none" family="微软雅黑" text-anchor="middle" size="13">Logstash</text></g></g><g id="ProcessOnG1033" transform="matrix(1.0,0.0,0.0,1.0,566.0,273.75)" opacity="1.0"><path id="ProcessOnPath1034" d="M0.0 0.0L124.0 0.0L124.0 30.0L0.0 30.0Z" stroke="#323232" stroke-width="1.0" stroke-dasharray="none" opacity="1.0" fill="#99ff99"/></g><g id="ProcessOnG1035" transform="matrix(1.0,0.0,0.0,1.0,583.0,283.25)" opacity="1.0"><path id="ProcessOnPath1036" d="M0.0 0.0L124.0 0.0L124.0 30.0L0.0 30.0Z" stroke="#323232" stroke-width="1.0" stroke-dasharray="none" opacity="1.0" fill="#99ff99"/><g id="ProcessOnG1037" transform="matrix(1.0,0.0,0.0,1.0,10.0,6.875)"><text id="ProcessOnText1038" fill="#000000" font-size="13" x="51.0" y="13.325" font-family="微软雅黑" font-weight="normal" font-style="normal" text-decoration="none" family="微软雅黑" text-anchor="middle" size="13">kafka</text></g></g><g id="ProcessOnG1039" transform="matrix(1.0,0.0,0.0,1.0,767.0,260.5)" opacity="1.0"><path id="ProcessOnPath1040" d="M0.0 4.0Q0.0 0.0 4.0 0.0L120.0 0.0Q124.0 0.0 124.0 4.0L124.0 33.0Q124.0 37.0 120.0 37.0L4.0 37.0Q0.0 37.0 0.0 33.0Z" stroke="#323232" stroke-width="1.0" stroke-dasharray="none" opacity="1.0" fill="#ffffcc"/></g><g id="ProcessOnG1041" transform="matrix(1.0,0.0,0.0,1.0,450.25,523.5)" opacity="1.0"><path id="ProcessOnPath1042" d="M0.0 4.0Q0.0 0.0 4.0 0.0L416.5 0.0Q420.5 0.0 420.5 4.0L420.5 32.5Q420.5 36.5 416.5 36.5L4.0 36.5Q0.0 36.5 0.0 32.5Z" stroke="#323232" stroke-width="1.0" stroke-dasharray="none" opacity="1.0" fill="#cc99ff"/><g id="ProcessOnG1043" transform="matrix(1.0,0.0,0.0,1.0,10.0,10.125)"><text id="ProcessOnText1044" fill="#000000" font-size="13" x="199.25" y="13.325" font-family="微软雅黑" font-weight="normal" font-style="normal" text-decoration="none" family="微软雅黑" text-anchor="middle" size="13">elasticsearch</text></g></g><g id="ProcessOnG1045" transform="matrix(1.0,0.0,0.0,1.0,557.0,663.0)" opacity="1.0"><path id="ProcessOnPath1046" d="M0.0 4.0Q0.0 0.0 4.0 0.0L142.0 0.0Q146.0 0.0 146.0 4.0L146.0 33.0Q146.0 37.0 142.0 37.0L4.0 37.0Q0.0 37.0 0.0 33.0Z" stroke="#323232" stroke-width="1.0" stroke-dasharray="none" opacity="1.0" fill="#ffcccc"/><g id="ProcessOnG1047" transform="matrix(1.0,0.0,0.0,1.0,10.0,10.375)"><text id="ProcessOnText1048" fill="#000000" font-size="13" x="62.0" y="13.325" font-family="微软雅黑" font-weight="normal" font-style="normal" text-decoration="none" family="微软雅黑" text-anchor="middle" size="13">MSCP API</text></g></g><g id="ProcessOnG1049" transform="matrix(1.0,0.0,0.0,1.0,409.0,660.0)" opacity="1.0"><path id="ProcessOnPath1050" d="M0.0 4.0Q0.0 0.0 4.0 0.0L110.0 0.0Q114.0 0.0 114.0 4.0L114.0 33.0Q114.0 37.0 110.0 37.0L4.0 37.0Q0.0 37.0 0.0 33.0Z" stroke="#323232" stroke-width="1.0" stroke-dasharray="none" opacity="1.0" fill="#ffcccc"/><g id="ProcessOnG1051" transform="matrix(1.0,0.0,0.0,1.0,10.0,10.375)"><text id="ProcessOnText1052" fill="#000000" font-size="13" x="46.0" y="13.325" font-family="微软雅黑" font-weight="normal" font-style="normal" text-decoration="none" family="微软雅黑" text-anchor="middle" size="13">MSCP Portal</text></g></g><g id="ProcessOnG1053" transform="matrix(1.0,0.0,0.0,1.0,354.0,244.0)" opacity="1.0"><path id="ProcessOnPath1054" d="M0.0 0.0L34.0 0.0L34.0 90.0L0.0 90.0Z" stroke="#323232" stroke-width="1.0" stroke-dasharray="none" opacity="1.0" fill="#99ff99"/><g id="ProcessOnG1055" transform="matrix(1.0,0.0,0.0,1.0,10.0,7.5)"><text id="ProcessOnText1056" fill="#000000" font-size="12" x="6.0" y="12.3" font-family="微软雅黑" font-weight="normal" font-style="normal" text-decoration="none" family="微软雅黑" text-anchor="middle" size="12">日</text><text id="ProcessOnText1057" fill="#000000" font-size="12" x="6.0" y="27.3" font-family="微软雅黑" font-weight="normal" font-style="normal" text-decoration="none" family="微软雅黑" text-anchor="middle" size="12">志</text><text id="ProcessOnText1058" fill="#000000" font-size="12" x="6.0" y="42.3" font-family="微软雅黑" font-weight="normal" font-style="normal" text-decoration="none" family="微软雅黑" text-anchor="middle" size="12">缓</text><text id="ProcessOnText1059" fill="#000000" font-size="12" x="6.0" y="57.3" font-family="微软雅黑" font-weight="normal" font-style="normal" text-decoration="none" family="微软雅黑" text-anchor="middle" size="12">存</text><text id="ProcessOnText1060" fill="#000000" font-size="12" x="6.0" y="72.3" font-family="微软雅黑" font-weight="normal" font-style="normal" text-decoration="none" family="微软雅黑" text-anchor="middle" size="12">层</text></g></g><g id="ProcessOnG1061" transform="matrix(1.0,0.0,0.0,1.0,354.0,387.25)" opacity="1.0"><path id="ProcessOnPath1062" d="M0.0 0.0L34.0 0.0L34.0 84.5L0.0 84.5Z" stroke="#323232" stroke-width="1.0" stroke-dasharray="none" opacity="1.0" fill="#99ccff"/><g id="ProcessOnG1063" transform="matrix(1.0,0.0,0.0,1.0,10.0,4.75)"><text id="ProcessOnText1064" fill="#000000" font-size="12" x="6.0" y="12.3" font-family="微软雅黑" font-weight="normal" font-style="normal" text-decoration="none" family="微软雅黑" text-anchor="middle" size="12">日</text><text id="ProcessOnText1065" fill="#000000" font-size="12" x="6.0" y="27.3" font-family="微软雅黑" font-weight="normal" font-style="normal" text-decoration="none" family="微软雅黑" text-anchor="middle" size="12">志</text><text id="ProcessOnText1066" fill="#000000" font-size="12" x="6.0" y="42.3" font-family="微软雅黑" font-weight="normal" font-style="normal" text-decoration="none" family="微软雅黑" text-anchor="middle" size="12">处</text><text id="ProcessOnText1067" fill="#000000" font-size="12" x="6.0" y="57.3" font-family="微软雅黑" font-weight="normal" font-style="normal" text-decoration="none" family="微软雅黑" text-anchor="middle" size="12">理</text><text id="ProcessOnText1068" fill="#000000" font-size="12" x="6.0" y="72.3" font-family="微软雅黑" font-weight="normal" font-style="normal" text-decoration="none" family="微软雅黑" text-anchor="middle" size="12">层</text></g></g><g id="ProcessOnG1069" transform="matrix(1.0,0.0,0.0,1.0,354.0,509.25)" opacity="1.0"><path id="ProcessOnPath1070" d="M0.0 0.0L34.0 0.0L34.0 84.5L0.0 84.5Z" stroke="#323232" stroke-width="1.0" stroke-dasharray="none" opacity="1.0" fill="#cc99ff"/><g id="ProcessOnG1071" transform="matrix(1.0,0.0,0.0,1.0,10.0,4.75)"><text id="ProcessOnText1072" fill="#000000" font-size="12" x="6.0" y="12.3" font-family="微软雅黑" font-weight="normal" font-style="normal" text-decoration="none" family="微软雅黑" text-anchor="middle" size="12">日</text><text id="ProcessOnText1073" fill="#000000" font-size="12" x="6.0" y="27.3" font-family="微软雅黑" font-weight="normal" font-style="normal" text-decoration="none" family="微软雅黑" text-anchor="middle" size="12">志</text><text id="ProcessOnText1074" fill="#000000" font-size="12" x="6.0" y="42.3" font-family="微软雅黑" font-weight="normal" font-style="normal" text-decoration="none" family="微软雅黑" text-anchor="middle" size="12">存</text><text id="ProcessOnText1075" fill="#000000" font-size="12" x="6.0" y="57.3" font-family="微软雅黑" font-weight="normal" font-style="normal" text-decoration="none" family="微软雅黑" text-anchor="middle" size="12">储</text><text id="ProcessOnText1076" fill="#000000" font-size="12" x="6.0" y="72.3" font-family="微软雅黑" font-weight="normal" font-style="normal" text-decoration="none" family="微软雅黑" text-anchor="middle" size="12">层</text></g></g><g id="ProcessOnG1077" transform="matrix(1.0,0.0,0.0,1.0,354.0,639.25)" opacity="1.0"><path id="ProcessOnPath1078" d="M0.0 0.0L34.0 0.0L34.0 84.5L0.0 84.5Z" stroke="#323232" stroke-width="1.0" stroke-dasharray="none" opacity="1.0" fill="#ffcccc"/><g id="ProcessOnG1079" transform="matrix(1.0,0.0,0.0,1.0,10.0,4.75)"><text id="ProcessOnText1080" fill="#000000" font-size="12" x="6.0" y="12.3" font-family="微软雅黑" font-weight="normal" font-style="normal" text-decoration="none" family="微软雅黑" text-anchor="middle" size="12">日</text><text id="ProcessOnText1081" fill="#000000" font-size="12" x="6.0" y="27.3" font-family="微软雅黑" font-weight="normal" font-style="normal" text-decoration="none" family="微软雅黑" text-anchor="middle" size="12">志</text><text id="ProcessOnText1082" fill="#000000" font-size="12" x="6.0" y="42.3" font-family="微软雅黑" font-weight="normal" font-style="normal" text-decoration="none" family="微软雅黑" text-anchor="middle" size="12">展</text><text id="ProcessOnText1083" fill="#000000" font-size="12" x="6.0" y="57.3" font-family="微软雅黑" font-weight="normal" font-style="normal" text-decoration="none" family="微软雅黑" text-anchor="middle" size="12">示</text><text id="ProcessOnText1084" fill="#000000" font-size="12" x="6.0" y="72.3" font-family="微软雅黑" font-weight="normal" font-style="normal" text-decoration="none" family="微软雅黑" text-anchor="middle" size="12">层</text></g></g><g id="ProcessOnG1085" transform="matrix(1.0,0.0,0.0,1.0,348.0,100.0)" opacity="1.0"><path id="ProcessOnPath1086" d="M0.0 0.0L34.0 0.0L34.0 90.0L0.0 90.0Z" stroke="#323232" stroke-width="1.0" stroke-dasharray="none" opacity="1.0" fill="#e6ffcc"/><g id="ProcessOnG1087" transform="matrix(1.0,0.0,0.0,1.0,10.0,7.5)"><text id="ProcessOnText1088" fill="#000000" font-size="12" x="6.0" y="12.3" font-family="微软雅黑" font-weight="normal" font-style="normal" text-decoration="none" family="微软雅黑" text-anchor="middle" size="12">日</text><text id="ProcessOnText1089" fill="#000000" font-size="12" x="6.0" y="27.3" font-family="微软雅黑" font-weight="normal" font-style="normal" text-decoration="none" family="微软雅黑" text-anchor="middle" size="12">志</text><text id="ProcessOnText1090" fill="#000000" font-size="12" x="6.0" y="42.3" font-family="微软雅黑" font-weight="normal" font-style="normal" text-decoration="none" family="微软雅黑" text-anchor="middle" size="12">接</text><text id="ProcessOnText1091" fill="#000000" font-size="12" x="6.0" y="57.3" font-family="微软雅黑" font-weight="normal" font-style="normal" text-decoration="none" family="微软雅黑" text-anchor="middle" size="12">入</text><text id="ProcessOnText1092" fill="#000000" font-size="12" x="6.0" y="72.3" font-family="微软雅黑" font-weight="normal" font-style="normal" text-decoration="none" family="微软雅黑" text-anchor="middle" size="12">层</text></g></g><g id="ProcessOnG1093"><path id="ProcessOnPath1094" d="M630.0 204.0L630.0 221.25L527.5 221.25L527.5 223.2639320225002" stroke="#323232" stroke-width="2.0" stroke-dasharray="2.0 3.0" fill="none" marker-end="url(#ProcessOnMarker1095)"/><g id="ProcessOnG1097" transform="matrix(1.0,0.0,0.0,1.0,586.3680339887499,213.125)"><path id="ProcessOnPath1098" d="M0 0H30.0V16.25H0Z" fill="#fff" transform="matrix(1.0,0.0,0.0,1.0,-15.0,0.0)"/><text id="ProcessOnText1099" fill="#000000" font-size="13" x="0.0" y="13.325" font-family="微软雅黑" font-weight="normal" font-style="normal" text-decoration="none" family="微软雅黑" text-anchor="middle" size="13">push</text></g></g><g id="ProcessOnG1100" transform="matrix(1.0,0.0,0.0,1.0,781.0,269.5)" opacity="1.0"><path id="ProcessOnPath1101" d="M0.0 4.0Q0.0 0.0 4.0 0.0L120.0 0.0Q124.0 0.0 124.0 4.0L124.0 33.0Q124.0 37.0 120.0 37.0L4.0 37.0Q0.0 37.0 0.0 33.0Z" stroke="#323232" stroke-width="1.0" stroke-dasharray="none" opacity="1.0" fill="#ffffcc"/></g><g id="ProcessOnG1102" transform="matrix(1.0,0.0,0.0,1.0,795.0,280.5)" opacity="1.0"><path id="ProcessOnPath1103" d="M0.0 4.0Q0.0 0.0 4.0 0.0L120.0 0.0Q124.0 0.0 124.0 4.0L124.0 33.0Q124.0 37.0 120.0 37.0L4.0 37.0Q0.0 37.0 0.0 33.0Z" stroke="#323232" stroke-width="1.0" stroke-dasharray="none" opacity="1.0" fill="#ffffcc"/><g id="ProcessOnG1104" transform="matrix(1.0,0.0,0.0,1.0,10.0,10.375)"><text id="ProcessOnText1105" fill="#000000" font-size="13" x="51.0" y="13.325" font-family="微软雅黑" font-weight="normal" font-style="normal" text-decoration="none" family="微软雅黑" text-anchor="middle" size="13">zookeeper</text></g></g><g id="ProcessOnG1106"><path id="ProcessOnPath1107" d="M631.0 377.0L631.0 358.25L527.5 358.25L527.5 354.7360679774998" stroke="#323232" stroke-width="2.0" stroke-dasharray="2.0 3.0" fill="none" marker-end="url(#ProcessOnMarker1108)"/><g id="ProcessOnG1110" transform="matrix(1.0,0.0,0.0,1.0,586.8680339887499,350.125)"><path id="ProcessOnPath1111" d="M0 0H22.0V16.25H0Z" fill="#fff" transform="matrix(1.0,0.0,0.0,1.0,-11.0,0.0)"/><text id="ProcessOnText1112" fill="#000000" font-size="13" x="0.0" y="13.325" font-family="微软雅黑" font-weight="normal" font-style="normal" text-decoration="none" family="微软雅黑" text-anchor="middle" size="13">pull</text></g></g><g id="ProcessOnG1113"><path id="ProcessOnPath1114" d="M720.0 289.0L738.5 289.0L738.5 289.0L741.7639320225002 289.0" stroke="#323232" stroke-width="2.0" stroke-dasharray="2.0 3.0" fill="none" marker-end="url(#ProcessOnMarker1115)"/></g><g id="ProcessOnG1117"><path id="ProcessOnPath1118" d="M631.0 377.0L631.0 358.25L843.0 358.25L843.0 354.7360679774998" stroke="#323232" stroke-width="2.0" stroke-dasharray="2.0 3.0" fill="none" marker-end="url(#ProcessOnMarker1119)"/></g><g id="ProcessOnG1121"><path id="ProcessOnPath1122" d="M631.0 635.0L631.0 615.5L631.0 615.5L631.0 611.2360679774998" stroke="#323232" stroke-width="2.0" stroke-dasharray="2.0 3.0" fill="none" marker-end="url(#ProcessOnMarker1123)"/><g id="ProcessOnG1125" transform="matrix(1.0,0.0,0.0,1.0,631.0,614.9930339887499)"><path id="ProcessOnPath1126" d="M0 0H22.0V16.25H0Z" fill="#fff" transform="matrix(1.0,0.0,0.0,1.0,-11.0,0.0)"/><text id="ProcessOnText1127" fill="#000000" font-size="13" x="0.0" y="13.325" font-family="微软雅黑" font-weight="normal" font-style="normal" text-decoration="none" family="微软雅黑" text-anchor="middle" size="13">pull</text></g></g><g id="ProcessOnG1128" transform="matrix(1.0,0.0,0.0,1.0,581.494140625,32.0)" opacity="1.0"><path id="ProcessOnPath1129" d="M0.0 0.0L97.01171875 0.0L97.01171875 27.0L0.0 27.0Z" stroke="none" stroke-width="0.0" stroke-dasharray="none" opacity="1.0" fill="none"/><g id="ProcessOnG1130" transform="matrix(1.0,0.0,0.0,1.0,0.0,6.0)"><text id="ProcessOnText1131" fill="#000000" font-size="12" x="47.505859375" y="12.3" font-family="微软雅黑" font-weight="normal" font-style="normal" text-decoration="none" family="微软雅黑" text-anchor="middle" size="12">日志平台架构</text></g></g><g id="ProcessOnG1132" transform="matrix(1.0,0.0,0.0,1.0,720.0,138.0)" opacity="1.0"><path id="ProcessOnPath1133" d="M0.0 0.0L124.0 0.0L124.0 30.0L0.0 30.0Z" stroke="#323232" stroke-width="1.0" stroke-dasharray="none" opacity="1.0" fill="#e6ffcc"/><g id="ProcessOnG1134" transform="matrix(1.0,0.0,0.0,1.0,10.0,6.875)"><text id="ProcessOnText1135" fill="#000000" font-size="13" x="51.0" y="13.325" font-family="微软雅黑" font-weight="normal" font-style="normal" text-decoration="none" family="微软雅黑" text-anchor="middle" size="13">PushGateWay</text></g></g><g id="ProcessOnG1136" transform="matrix(1.0,0.0,0.0,1.0,399.0,270.5)" opacity="1.0"><path id="ProcessOnPath1137" d="M0.0 4.0Q0.0 0.0 4.0 0.0L120.0 0.0Q124.0 0.0 124.0 4.0L124.0 33.0Q124.0 37.0 120.0 37.0L4.0 37.0Q0.0 37.0 0.0 33.0Z" stroke="#323232" stroke-width="1.0" stroke-dasharray="none" opacity="1.0" fill="#ffffcc"/><g id="ProcessOnG1138" transform="matrix(1.0,0.0,0.0,1.0,10.0,10.375)"><text id="ProcessOnText1139" fill="#000000" font-size="13" x="51.0" y="13.325" font-family="微软雅黑" font-weight="normal" font-style="normal" text-decoration="none" family="微软雅黑" text-anchor="middle" size="13">Logstash</text></g></g><g id="ProcessOnG1140"><path id="ProcessOnPath1141" d="M523.0 289.0L550.7641895211774 288.8385802934815" stroke="#323232" stroke-width="2.0" stroke-dasharray="2.0 3.0" fill="none" marker-end="url(#ProcessOnMarker1142)"/></g><g id="ProcessOnG1144" transform="matrix(1.0,0.0,0.0,1.0,739.0,665.0)" opacity="1.0"><path id="ProcessOnPath1145" d="M0.0 4.0Q0.0 0.0 4.0 0.0L166.0 0.0Q170.0 0.0 170.0 4.0L170.0 29.0Q170.0 33.0 166.0 33.0L4.0 33.0Q0.0 33.0 0.0 29.0Z" stroke="#323232" stroke-width="1.0" stroke-dasharray="none" opacity="1.0" fill="#ffcccc"/><g id="ProcessOnG1146" transform="matrix(1.0,0.0,0.0,1.0,10.0,8.375)"><text id="ProcessOnText1147" fill="#000000" font-size="13" x="74.0" y="13.325" font-family="微软雅黑" font-weight="normal" font-style="normal" text-decoration="none" family="微软雅黑" text-anchor="middle" size="13">MSCP Portal</text></g></g><g id="ProcessOnG1148"><path id="ProcessOnPath1149" d="M523.0 678.5L541.8228978905967 680.1608439315232" stroke="#323232" stroke-width="2.0" stroke-dasharray="2.0 3.0" fill="none" marker-end="url(#ProcessOnMarker1150)"/></g><g id="ProcessOnG1152"><path id="ProcessOnPath1153" d="M739.0 681.5L718.2360679774998 681.5" stroke="#323232" stroke-width="2.0" stroke-dasharray="2.0 3.0" fill="none" marker-end="url(#ProcessOnMarker1154)"/></g><g id="ProcessOnG1156"><path id="ProcessOnPath1157" d="M631.0 482.0L631.0 491.7639320225002" stroke="#323232" stroke-width="2.0" stroke-dasharray="2.0 3.0" fill="none" marker-end="url(#ProcessOnMarker1158)"/></g></g></g></svg>